<svg xmlns="http://www.w3.org/2000/svg" width="900" height="620" viewBox="0 0 900 620" role="img" aria-label="Coconut Rice with Beef">
  <defs>
    <linearGradient id="bg" x1="0" y1="0" x2="1" y2="1">
      <stop offset="0%" stop-color="#c62828"/>
      <stop offset="55%" stop-color="#111827"/>
      <stop offset="100%" stop-color="#101010"/>
    </linearGradient>
    <radialGradient id="glow" cx="70%" cy="28%" r="58%">
      <stop offset="0%" stop-color="#f97316" stop-opacity=".72"/>
      <stop offset="100%" stop-color="#f97316" stop-opacity="0"/>
    </radialGradient>
    <filter id="shadow" x="-20%" y="-20%" width="140%" height="140%">
      <feDropShadow dx="0" dy="18" stdDeviation="18" flood-color="#000000" flood-opacity=".38"/>
    </filter>
  </defs>
  <rect width="900" height="620" fill="url(#bg)"/>
  <rect width="900" height="620" fill="url(#glow)"/>
  <circle cx="704" cy="156" r="126" fill="rgba(255,255,255,.08)"/>
  <circle cx="96" cy="504" r="180" fill="rgba(255,255,255,.06)"/>
  <g filter="url(#shadow)">
    
    <circle cx="440" cy="238" r="134" fill="rgba(255,255,255,.16)" stroke="rgba(255,255,255,.42)" stroke-width="8"/>
    <circle cx="440" cy="238" r="96" fill="rgba(255,248,225,.86)"/>
    <path d="M370 243.6c35-42 112-48 152-8c-29 48-121 62-152 8z" fill="rgba(198,40,40,.82)"/>
    <circle cx="417" cy="216" r="12" fill="#fbbf24"/>
    <circle cx="464.4" cy="254" r="15" fill="#15803d"/>
    <path d="M392 280c34 26 88 24 118-2" fill="none" stroke="rgba(17,24,39,.35)" stroke-width="10" stroke-linecap="round"/>
  
  </g>
  <rect x="36" y="46" width="420" height="260" rx="34" fill="rgba(0,0,0,.28)"/>
  <text x="54" y="84" fill="#f97316" font-size="18" font-weight="900" letter-spacing="2" font-family="Inter, Arial, sans-serif">RICE</text>
  <text x="54" y="118" fill="#ffffff" font-size="38" font-weight="900" font-family="Inter, Arial, sans-serif">Coconut Rice with Beef</text>
  <text x="54" y="270" fill="#f97316" font-size="34" font-weight="900" font-family="Inter, Arial, sans-serif">NGN 3,600</text>
  <text x="54" y="548" fill="rgba(255,255,255,.68)" font-size="20" font-weight="800" font-family="Inter, Arial, sans-serif">Savoury Fresh Meals Delivered Fast</text>
</svg>